<svg width="120" height="24" viewBox="0 0 120 24" fill="none" xmlns="http://www.w3.org/2000/svg">
<g clip-path="url(#clip0_16_328)">
<path d="M8.34 19.38C7.02 19.38 5.88667 19.1533 4.94 18.7C3.99333 18.2333 3.22 17.6267 2.62 16.88C2.02 16.12 1.57333 15.3067 1.28 14.44C1 13.56 0.86 12.7067 0.86 11.88V11.44C0.86 10.5333 1.00667 9.64 1.3 8.76C1.59333 7.86667 2.04 7.06 2.64 6.34C3.25333 5.62 4.02 5.04667 4.94 4.62C5.87333 4.18 6.97333 3.96 8.24 3.96C9.56 3.96 10.7267 4.20667 11.74 4.7C12.7533 5.19333 13.56 5.88 14.16 6.76C14.7733 7.62667 15.1333 8.64667 15.24 9.82H11.94C11.8467 9.23333 11.6333 8.73333 11.3 8.32C10.9667 7.90667 10.5333 7.58667 10 7.36C9.48 7.13333 8.89333 7.02 8.24 7.02C7.58667 7.02 7.00667 7.13333 6.5 7.36C5.99333 7.58667 5.56667 7.90667 5.22 8.32C4.88667 8.73333 4.62667 9.22667 4.44 9.8C4.26667 10.36 4.18 10.9867 4.18 11.68C4.18 12.36 4.26667 12.9867 4.44 13.56C4.62667 14.12 4.89333 14.6133 5.24 15.04C5.6 15.4533 6.04 15.7733 6.56 16C7.08 16.2133 7.67333 16.32 8.34 16.32C9.35333 16.32 10.2067 16.0733 10.9 15.58C11.6067 15.0867 12.0333 14.4067 12.18 13.54H15.46C15.34 14.6067 14.98 15.5867 14.38 16.48C13.7933 17.36 12.9867 18.0667 11.96 18.6C10.9467 19.12 9.74 19.38 8.34 19.38ZM17.6361 19V4.4H23.0161L28.5161 16.34H29.1961L28.7961 16.7V4.4H31.8761V19H26.4561L20.9561 7.06H20.2761L20.6761 6.7V19H17.6361ZM38.0356 19.08V16.02H40.7556C41.4356 16.02 42.049 15.92 42.5956 15.72C43.1423 15.5067 43.609 15.2133 43.9956 14.84C44.3823 14.4533 44.6756 13.9933 44.8756 13.46C45.0756 12.9133 45.1756 12.3133 45.1756 11.66C45.1756 10.98 45.0756 10.3733 44.8756 9.84C44.6756 9.30667 44.3823 8.85333 43.9956 8.48C43.609 8.10667 43.1423 7.82667 42.5956 7.64C42.049 7.44 41.4356 7.34 40.7556 7.34H38.0356V4.28H40.5756C41.8956 4.28 43.049 4.47333 44.0356 4.86C45.0223 5.24667 45.849 5.77333 46.5156 6.44C47.1823 7.10667 47.6756 7.87333 47.9956 8.74C48.329 9.59333 48.4956 10.4933 48.4956 11.44V11.88C48.4956 12.76 48.329 13.6333 47.9956 14.5C47.6756 15.3533 47.1823 16.1267 46.5156 16.82C45.849 17.5 45.0223 18.0467 44.0356 18.46C43.049 18.8733 41.8956 19.08 40.5756 19.08H38.0356ZM35.1556 19.08V4.28H38.4356V19.08H35.1556Z" fill="black"/>
<path d="M54.9798 19V4.4H58.1798V19H54.9798ZM57.7798 19V16.28H64.1598V19H57.7798ZM57.7798 12.94V10.22H63.6998V12.94H57.7798ZM57.7798 7.12V4.4H64.0198V7.12H57.7798ZM65.7823 14.76V11.92H74.2023V14.76H65.7823ZM86.3181 19L81.2781 12.18H79.2581L85.3781 4.4H89.1381L83.6381 11.38L83.5981 9.96L90.2781 19H86.3181ZM76.7181 19V4.4H79.9981V19H76.7181ZM98.0995 19V15.76H97.5595V12.24C97.5595 11.68 97.4262 11.26 97.1595 10.98C96.8929 10.7 96.4662 10.56 95.8795 10.56C95.5862 10.56 95.1995 10.5667 94.7195 10.58C94.2395 10.5933 93.7462 10.6133 93.2395 10.64C92.7329 10.6667 92.2729 10.6933 91.8595 10.72V8.02C92.1662 7.99333 92.5262 7.96667 92.9395 7.94C93.3529 7.91333 93.7795 7.89333 94.2195 7.88C94.6595 7.86667 95.0729 7.86 95.4595 7.86C96.5795 7.86 97.5195 8.02 98.2795 8.34C99.0529 8.66 99.6395 9.14667 100.04 9.8C100.44 10.44 100.64 11.2667 100.64 12.28V19H98.0995ZM94.5995 19.28C93.8129 19.28 93.1195 19.14 92.5195 18.86C91.9329 18.58 91.4729 18.18 91.1395 17.66C90.8062 17.1267 90.6395 16.4933 90.6395 15.76C90.6395 14.96 90.8462 14.3067 91.2595 13.8C91.6729 13.28 92.2529 12.9 92.9995 12.66C93.7462 12.4067 94.6062 12.28 95.5795 12.28H97.9195V14.06H95.5595C94.9995 14.06 94.5662 14.2 94.2595 14.48C93.9662 14.7467 93.8195 15.1133 93.8195 15.58C93.8195 16.02 93.9662 16.38 94.2595 16.66C94.5662 16.9267 94.9995 17.06 95.5595 17.06C95.9195 17.06 96.2395 17 96.5195 16.88C96.8129 16.7467 97.0529 16.5267 97.2395 16.22C97.4262 15.9133 97.5329 15.4867 97.5595 14.94L98.3195 15.74C98.2529 16.5 98.0662 17.14 97.7595 17.66C97.4662 18.18 97.0529 18.58 96.5195 18.86C95.9995 19.14 95.3595 19.28 94.5995 19.28ZM103.355 19V8.04H105.895V12.74H105.835C105.835 11.1933 106.161 10 106.815 9.16C107.481 8.32 108.441 7.9 109.695 7.9H110.115V10.66H109.315C108.435 10.66 107.755 10.9 107.275 11.38C106.795 11.8467 106.555 12.5267 106.555 13.42V19H103.355ZM117.006 19.14C115.9 19.14 115.006 19.0067 114.326 18.74C113.646 18.46 113.146 18 112.826 17.36C112.52 16.7067 112.366 15.8267 112.366 14.72V5.08H115.346V14.84C115.346 15.36 115.48 15.76 115.746 16.04C116.026 16.3067 116.42 16.44 116.926 16.44H118.546V19.14H117.006ZM110.706 10.38V8.04H118.546V10.38H110.706Z" fill="#595FF9"/>
</g>
<defs>
<clipPath id="clip0_16_328">
<rect width="120" height="24" fill="white"/>
</clipPath>
</defs>
</svg>
